<svg id="Layer_1" data-name="Layer 1" xmlns="http://www.w3.org/2000/svg" viewBox="0 0 57 57">
  <defs>
    <style> .cls-1 { fill: #259ad6; } </style>
  </defs>
  <title>linkedin-logo-blue</title>
  <path class="cls-1" d="M55,34.22V53.78H43.62V35.53c0-4.58-1.64-7.71-5.74-7.71A6.2,6.2,0,0,0,32.05,32a7.77,7.77,0,0,0-.38,2.76V53.78H20.33s.15-30.92,0-34.12H31.68V24.5l-.07.11h.07V24.5A11.27,11.27,0,0,1,41.9,18.86C49.36,18.86,55,23.74,55,34.22Zm-46.5-31C4.58,3.22,2,5.76,2,9.11S4.51,15,8.31,15h.07c4,0,6.42-2.62,6.42-5.9S12.34,3.22,8.46,3.22ZM2.72,53.78H14.06V19.66H2.72Zm0,0" />
</svg>